# Blender v2.79 (sub 0) OBJ File: ''
# www.blender.org
mtllib planes.mtl
o Cube
v 1.000000 -1.000000 1.000000
v -1.000000 -1.000000 1.000000
v 1.000000 1.000000 -0.999999
v 0.999999 1.000000 1.000001
v -1.000000 1.000000 1.000000
v -1.000000 1.000000 -1.000000
vt 0.500000 0.999929
vt 0.000071 0.999929
vt 0.000071 0.500000
vt 0.500000 0.500000
vt 0.500000 0.000071
vt 0.000071 0.000071
vn 0.0000 1.0000 0.0000
vn -0.0000 -0.0000 1.0000
usemtl Material
s off
f 3/1/1 6/2/1 5/3/1 4/4/1
f 1/5/2 4/4/2 5/3/2 2/6/2
